<svg xmlns="http://www.w3.org/2000/svg" shape-rendering="geometricPrecision" text-rendering="geometricPrecision" image-rendering="optimizeQuality" fill-rule="evenodd" clip-rule="evenodd" viewBox="0 0 378 512.374"><path fill-rule="nonzero" d="M126.982 228.212a4.354 4.354 0 011.059-.17 4.353 4.353 0 015.087 3.946c.186 2.31.289 3.427.437 5.06.487 5.407 1.233 13.628 1.768 20.305a4.355 4.355 0 01-3.097 4.508 487.64 487.64 0 01-15.264 4.315 603.936 603.936 0 01-15.531 3.911l-2.27.539c-44.933 10.667-89.591 21.275-90.47 75.771l.009 146.488h-.017c.043 3.873.547 6.691 1.92 8.324 1.252 1.489 3.62 2.31 7.544 2.46l337.887-.005v.017c6.002-.041 9.577-.37 11.169-1.818 1.517-1.381 1.999-4.676 1.999-10.797V366.232l.066-7.985c.192-20.667.338-36.19-13.596-54.417-5.245-6.861-11.855-12.106-19.497-16.118-7.742-4.063-16.576-6.895-26.152-8.878l-.444-.086-63.831-15.981a4.356 4.356 0 01-3.008-6.366l-.816.137c-.047.025-.075.031-.078.013-1.68-10.006-7.717-45.962-9.32-72.546a4.351 4.351 0 01-.114-2.015c-.481-9.13-.392-17.002.647-22.098a4.34 4.34 0 018.504 1.734c-.532 2.615-.78 6.102-.808 10.196 24.355-29.79 25.627-66.647 12.486-97.766-6.658-15.766-17.003-30.07-29.915-41.256-12.85-11.134-28.244-19.164-45.062-22.45-35.03-6.843-76.451 7.005-114.379 56.365l16.021 6.991c.256.094.507.214.749.359l.039.025c10.383 3.724 24.707-.638 38.408-4.812 10.087-3.072 19.865-6.051 28.434-6.023a4.35 4.35 0 014.456 5.702c-4.508 13.676-4.036 23.739-.213 31.51 3.863 7.85 11.262 13.709 20.476 18.748a4.34 4.34 0 01-4.15 7.621c-10.675-5.838-19.343-12.819-24.118-22.524-4.183-8.502-5.294-18.839-2.04-31.944-6.145.891-13.153 3.027-20.329 5.212-14.024 4.272-28.64 8.724-41.122 5.527-1.165 2.47-2.062 5.105-2.731 7.879-.986 4.088-1.496 8.499-1.649 13.146-.132 4.04-.02 6.807.065 8.958.268 6.677.334 8.364-5.291 19.867l-9.566 19.557c-.106.27-.242.533-.407.785-1.473 2.254-2.14 4.286-2.174 5.962-.018.876.14 1.639.443 2.254.258.523.625.945 1.071 1.236.526.343 1.19.553 1.961.594l.346.007 11.043.649a4.374 4.374 0 011.176-.185l.441.014.001-.014 10.251.878a4.353 4.353 0 11-.715 8.676l-5.495-.33.012 1.938c.009 1.579.019 3.19.038 4.804 15.379-2.866 30.017-4.795 43.531-5.064 14.522-.289 27.715 1.347 39.094 5.788 12.575 4.908 22.717 12.835 29.759 24.726 6.889 11.631 10.715 26.997 10.821 46.987.021 4.063.085 14.036.179 26.227 3.262-3.093 7.446-4.603 12.174-4.905 5.541-.352 11.823 1.04 18.117 3.476 12.927 5.006 26.283 14.621 32.941 22.252 11.649 13.353 20.638 34.54 27.038 57.561 7.871 28.313 11.896 59.599 12.147 82.333.44 15.964-2.253 27.41-7.423 35.319-5.432 8.308-13.391 12.657-23.203 14.144a4.105 4.105 0 01-.581.045c-7.801.702-16.141 1.419-24.264 1.066-8.575-.372-16.884-1.924-24.068-5.867-1.736-.952-3.466-2-5.185-3.153a61.383 61.383 0 01-4.91-3.643l-.223-.199c-5.657-4.725-9.92-10.304-13.244-16.425-3.309-6.094-5.672-12.691-7.552-19.496-1.554-5.626-2.696-11.286-3.552-16.966-.854-5.665-1.442-11.417-1.88-17.214l-.014-.304c-.001-8.548.14-15.523.446-21.883a4.273 4.273 0 01-.927.074c.304 6.341.444 13.294.444 21.809l-.016.304c-.439 5.797-1.026 11.55-1.88 17.214-.856 5.68-1.999 11.34-3.552 16.966-1.879 6.805-4.243 13.402-7.552 19.496-3.324 6.122-7.59 11.701-13.244 16.425l-.223.199a61.808 61.808 0 01-4.91 3.643 67.879 67.879 0 01-5.185 3.153c-7.184 3.943-15.493 5.495-24.068 5.867-8.123.353-16.464-.364-24.264-1.066a4.094 4.094 0 01-.581-.045c-9.813-1.487-17.772-5.836-23.204-14.144-5.169-7.909-7.863-19.355-7.423-35.319.252-22.734 4.277-54.02 12.148-82.333 6.4-23.021 15.389-44.208 27.038-57.561 4.578-5.246 9.789-9.805 15.559-13.731 5.673-3.86 11.88-7.095 18.552-9.763.228-.102.468-.185.719-.246 10.413-2.549 18.706-2.357 24.682.822a18.275 18.275 0 013.213 2.165c-.093-12.122-.157-22.093-.179-26.188-.071-13.656-2.336-23.888-6.404-31.345-3.872-7.096-9.479-11.712-16.444-14.43-8.184-3.194-18.385-4.269-30.039-3.888-11.859.386-25.236 2.299-39.542 5.039l.145.645-.018.003a4.325 4.325 0 01-.355 2.872c-2.642 5.252-3.814 9.365-3.841 12.53-.027 3.184 1.275 5.337 3.423 6.719 2.702 1.738 6.707 2.571 11.297 2.803 11.259.568 25.375-2.508 34.139-5.064zm53.605 162.04c-3.632-1.448-7.611-4.645-11.222-8.413-5.317-5.549-10.161-12.6-11.698-16.789-1.177-3.205-1.739-6.17-2.344-9.377-.512-2.707-1.061-5.609-2.086-8.929-.638.223-1.273.41-1.901.557-7.979 1.884-11.358-.923-15.562-4.419-1.152-.958-2.393-1.99-3.776-2.855-4.131-2.588-4.406-2.608-6.992-2.785a98.809 98.809 0 01-2.974-.242 4.075 4.075 0 01.767-8.113c.846.08 1.886.151 2.751.21 4.393.3 4.858.333 10.76 4.03 1.894 1.186 3.333 2.383 4.671 3.494 2.459 2.045 4.436 3.687 8.503 2.727.221-.052.438-.109.652-.172l-.706-1.346c-1.383-2.623-2.773-5.255-3.752-8.506-.538-1.785-.827-3.27-.916-4.541-.558-2.339-1.283-4.038-2.153-5.174-.675-.881-1.459-1.386-2.329-1.571a4.08 4.08 0 111.693-7.985c2.778.591 5.178 2.07 7.12 4.605.157.205.31.417.46.635 1.238-1.452 2.554-3.478 3.343-7.209a4.082 4.082 0 017.985 1.693c-1.478 6.984-4.224 9.907-6.381 12.202-1.124 1.195-1.897 2.02-.996 5.012.753 2.502 1.951 4.773 3.146 7.037 1.027 1.947 2.055 3.895 2.947 6.203 2.168 5.612 2.992 9.968 3.743 13.941.535 2.831 1.031 5.447 1.992 8.068 1.21 3.295 5.308 9.142 9.909 13.944 1.67 1.742 3.352 3.31 4.899 4.496a274.936 274.936 0 00-.436-5.944c-.426-5.072-.975-10.039-1.661-15.515l-2.201-7.609a4.345 4.345 0 01-.17-1.071v-.01c-.083-2.442-.168-6.602-.252-11.89-.403-4.366-.734-9.641-.99-15.158-.441-9.433-.665-19.681-.656-27.258-.264-6.526-2.319-10.684-6.021-12.654-4.098-2.179-10.383-2.181-18.672-.183-6.085 2.442-11.734 5.39-16.88 8.89-5.178 3.522-9.864 7.626-13.993 12.358-10.766 12.341-19.206 32.4-25.313 54.366-7.696 27.679-11.625 58.195-11.861 80.305l-.002.08c-.388 14.171 1.833 24.069 6.116 30.623 4.022 6.153 10.062 9.395 17.581 10.535l.095.015c7.511.676 15.532 1.363 23.186 1.031 7.437-.321 14.548-1.616 20.49-4.876a60.495 60.495 0 004.579-2.771 53.386 53.386 0 004.238-3.163l.219-.169c4.791-4.004 8.434-8.784 11.299-14.06 2.966-5.461 5.117-11.492 6.85-17.771 1.43-5.178 2.503-10.533 3.329-16.007.686-4.558 1.195-9.158 1.589-13.78-7.926 3.073-14.022 8.963-20.47 15.195l-3.052 2.933c-2.559 2.433-5.148 4.778-8.149 6.88-3.072 2.152-6.483 3.966-10.552 5.21-4.063 1.241-8.188 1.699-12.377 1.271-4.118-.422-8.267-1.693-12.442-3.909-2.575 2.035-4.691 3.604-9.437 3.99a4.086 4.086 0 01-.64-8.145c2.462-.2 3.696-1.178 5.281-2.432l.427-.338c-.3-.339-.635-.68-1.008-1.032a4.08 4.08 0 01-.175-5.766 4.08 4.08 0 015.766-.175c1.376 1.294 2.482 2.609 3.401 4.124a17.89 17.89 0 011.532 3.227c2.766 1.305 5.473 2.07 8.125 2.342 3.094.317 6.155-.026 9.182-.951 3.15-.962 5.824-2.39 8.254-4.092 2.5-1.752 4.839-3.879 7.189-6.112l3.02-2.902c7.87-7.606 15.268-14.751 26.308-17.986l-.001-.079c-3.757-.253-7.638-1.904-11.735-4.238-5.439 11.358-10.882 11.384-22.02 11.429l-.57.005a18.671 18.671 0 01-1.897 3.005c-1.359 1.751-3.05 3.283-5.119 4.553a4.079 4.079 0 01-4.248-6.964c1.198-.735 2.16-1.6 2.914-2.572.464-.598.858-1.244 1.19-1.936a8.525 8.525 0 00-1.884-1.839c-1.287-.916-2.873-1.55-4.689-1.955a4.073 4.073 0 011.757-7.953c2.876.641 5.456 1.695 7.66 3.264a16.568 16.568 0 014.154 4.25l.695-.003c7.643-.031 11.385-.048 15.052-7.651l-1.785-1.176c-1.802-1.188-3.658-2.414-5.875-3.805-12.923-8.113-17.844-7.313-30.327-5.282l-2.784.445c-.41.562-.769 1.157-1.071 1.758l.013.007c-.545 1.09-.901 2.174-1.04 3.123a4.086 4.086 0 01-4.632 3.45 4.085 4.085 0 01-3.45-4.631c.263-1.795.882-3.735 1.806-5.584l.013.007.098-.193-.172-.098a18.356 18.356 0 01-4.304-3.41 4.08 4.08 0 015.973-5.559 10.288 10.288 0 002.421 1.909c.806.466 1.742.874 2.821 1.215l2.999-.488c14.66-2.386 20.437-3.327 35.979 6.431 1.855 1.164 3.963 2.555 6.003 3.901 6.249 4.12 11.812 7.79 15.908 8.377l-.052-1.787zm3.596-46.72c.527 3.843 1.006 7.36 1.438 10.654l2.929 10.125 4.15-15.173 1.676-32.516c-.106-10.052-.207-20.943-.285-30.937-.124-15.31-.21-28.558-.236-33.432-.098-18.335-3.502-32.253-9.63-42.599-5.975-10.087-14.648-16.84-25.438-21.052-10.26-4.004-22.344-5.476-35.761-5.208-13.29.265-27.927 2.248-43.421 5.183.032.532.067 1.058.107 1.576.255 3.411.409 6.427.473 9.084l.127-.026c14.745-2.834 28.635-4.814 41.149-5.222 12.787-.418 24.13.82 33.476 4.467 8.838 3.45 15.961 9.325 20.901 18.377 4.741 8.693 7.379 20.285 7.459 35.461.026 4.889.113 18.268.239 33.761.08 10 .179 20.867.285 30.862.085 7.943.178 15.377.273 21.452.029 1.863.058 3.593.089 5.163zm85.919 86.116l.427.338c1.585 1.255 2.821 2.233 5.281 2.433a4.086 4.086 0 01-.639 8.145c-4.748-.386-6.862-1.956-9.437-3.99-4.177 2.216-8.326 3.487-12.443 3.909-4.189.428-8.315-.03-12.376-1.271-4.07-1.244-7.48-3.058-10.552-5.21-3.001-2.101-5.591-4.447-8.148-6.88l-3.055-2.935c-6.802-6.573-13.209-12.764-21.785-15.672.4 4.784.917 9.543 1.628 14.259.826 5.474 1.899 10.83 3.329 16.007 1.733 6.279 3.884 12.31 6.85 17.771 2.864 5.275 6.505 10.054 11.298 14.06l.22.169a52.856 52.856 0 004.239 3.163 60.274 60.274 0 004.578 2.771c5.942 3.26 13.053 4.555 20.49 4.876 7.655.332 15.675-.355 23.186-1.031l.095-.015c7.518-1.14 13.558-4.382 17.58-10.535 4.283-6.554 6.504-16.452 6.115-30.623v-.08c-.236-22.11-4.165-52.626-11.861-80.305-6.107-21.966-14.547-42.025-25.313-54.366-5.957-6.829-18.009-15.472-29.746-20.017-5.256-2.035-10.367-3.206-14.667-2.933-3.649.233-6.683 1.583-8.567 4.5-1.481 2.291-2.404 5.572-2.586 10.039.008 7.577-.216 17.825-.655 27.258-.374 8.035-.906 15.558-1.586 20.507l-.543 3.968-.106 2.064a4.33 4.33 0 01-.222 1.173l-.216.785c-1.143 8.548-1.997 15.546-2.602 22.756a274.777 274.777 0 00-.493 6.893c1.884-1.221 4.07-3.187 6.234-5.446 4.6-4.801 8.699-10.648 9.908-13.943.962-2.622 1.458-5.239 1.993-8.07.751-3.972 1.576-8.329 3.744-13.939.891-2.309 1.92-4.257 2.947-6.206 1.194-2.263 2.392-4.533 3.145-7.034.902-2.992.128-3.817-.995-5.012-2.157-2.295-4.904-5.218-6.382-12.202a4.081 4.081 0 117.985-1.693c.789 3.731 2.105 5.757 3.343 7.209.151-.218.303-.431.459-.635 1.942-2.535 4.341-4.014 7.12-4.605a4.082 4.082 0 011.693 7.985c-.87.185-1.653.69-2.329 1.571-.872 1.138-1.598 2.833-2.152 5.156-.087 1.276-.376 2.766-.916 4.559-.979 3.249-2.367 5.88-3.751 8.502l-.707 1.35c.213.062.431.12.653.172 4.067.96 6.044-.683 8.501-2.726 1.339-1.112 2.779-2.31 4.672-3.495 5.902-3.697 6.365-3.73 10.759-4.03.865-.059 1.905-.13 2.751-.21a4.075 4.075 0 01.767 8.113c-1.478.14-2.294.196-2.974.242-2.586.177-2.858.197-6.991 2.785-1.383.865-2.623 1.897-3.777 2.856-4.204 3.494-7.583 6.302-15.561 4.418a18.582 18.582 0 01-1.9-.558c-1.026 3.319-1.575 6.222-2.086 8.928-.606 3.207-1.169 6.173-2.346 9.379-1.536 4.189-6.379 11.24-11.696 16.788-4.046 4.221-8.553 7.726-12.515 8.858l-.041 1.421c4.176.124 10.255-3.883 17.176-8.446a261.17 261.17 0 016.016-3.91c15.541-9.756 21.318-8.817 35.979-6.431l3.001.488c1.077-.342 2.013-.749 2.819-1.215l.199-.108a10.237 10.237 0 002.223-1.801 4.08 4.08 0 015.973 5.559 18.345 18.345 0 01-4.071 3.263l-.234.147-.172.098.095.187c.939 1.879 1.563 3.819 1.821 5.583a4.085 4.085 0 01-8.081 1.181c-.143-.976-.494-2.063-1.023-3.122a12.776 12.776 0 00-1.066-1.765l-2.794-.446c-12.483-2.031-17.402-2.831-30.326 5.282-1.888 1.186-3.904 2.515-5.861 3.807h-.015l-1.784 1.173c3.666 7.603 7.407 7.621 15.047 7.652l.699.003a16.62 16.62 0 014.155-4.25c2.203-1.568 4.784-2.623 7.659-3.264a4.072 4.072 0 111.757 7.953c-1.817.405-3.401 1.039-4.689 1.955a8.503 8.503 0 00-1.883 1.84 10.76 10.76 0 001.19 1.935c.754.972 1.716 1.838 2.913 2.572a4.079 4.079 0 01-4.248 6.964c-2.069-1.27-3.759-2.802-5.117-4.553a18.508 18.508 0 01-1.897-3.005l-.572-.005c-11.138-.045-16.581-.07-22.019-11.429-4.18 2.38-8.133 4.052-11.961 4.252 11.164 3.201 18.607 10.391 26.531 18.049l3.022 2.904c2.349 2.234 4.69 4.361 7.189 6.112 2.43 1.702 5.103 3.13 8.254 4.092 3.027.925 6.087 1.268 9.181.951 2.651-.272 5.359-1.037 8.126-2.342a17.819 17.819 0 011.531-3.227c.918-1.515 2.025-2.83 3.403-4.124a4.08 4.08 0 015.59 5.941c-.374.352-.709.692-1.009 1.031zM124.917 237.774c-9.308 2.392-21.926 4.71-32.482 4.178-6.025-.304-11.496-1.534-15.584-4.165-4.646-2.988-7.462-7.517-7.404-14.1.029-3.36.865-7.258 2.678-11.761-.652-1.735-1.122-3.77-1.341-5.828-.23-2.166-.249-4.376.016-6.287l-.054-.217a4.352 4.352 0 01.948-3.771 44.09 44.09 0 01-.658-5.023c-.356-4.682-.391-10.413-.424-15.788l-.016-2.482-8.656-.512c-2.411-.099-4.586-.8-6.402-1.987a11.745 11.745 0 01-4.134-4.671c-.902-1.831-1.376-3.954-1.327-6.268.066-3.199 1.134-6.775 3.476-10.41l9.555-19.536c4.655-9.517 4.606-10.768 4.407-15.716-.09-2.272-.207-5.192-.064-9.571.17-5.219.754-10.218 1.887-14.914.764-3.165 1.773-6.187 3.069-9.039l-17.021-7.429a4.343 4.343 0 01-1.768-6.548C94.786 9.806 140.856-5.826 179.94 1.809c18.344 3.584 35.107 12.32 49.077 24.423 13.908 12.05 25.053 27.462 32.228 44.455 15.376 36.409 12.6 80.068-20.051 113.694 1.646 25.46 7.526 60.558 9.209 70.584l61.381 15.368c10.318 2.136 19.904 5.223 28.415 9.691 8.755 4.596 16.343 10.625 22.389 18.533 15.731 20.579 15.574 37.384 15.366 59.758-.015 1.678-.032 3.484-.032 7.917v124.834c0 8.733-1.171 13.87-4.857 17.227-3.612 3.287-8.799 4.01-17.004 4.064h-.017v.017H18.379a4.31 4.31 0 01-.51-.031c-6.61-.248-10.991-2.106-13.89-5.555-2.869-3.411-3.902-8-3.962-13.869v-.034H0V346.668c0-.168.009-.333.028-.494 1.02-61.194 48.931-72.575 97.136-84.019l2.27-.539a598.128 598.128 0 0015.325-3.843 482.817 482.817 0 0011.614-3.243c-.601-7.323-1.104-12.861-1.451-16.699l-.005-.057zm118.911 17.334c1.117-1.041-1.412 1.179-1.894 1.43l.816-.137a4.38 4.38 0 011.078-1.293zm-49.58-117.365a4.342 4.342 0 11-8.541 1.565c-.467-2.554-.324-4.975.3-7.184.881-3.124 2.704-5.804 5.097-7.835 2.321-1.969 5.203-3.333 8.286-3.895a17.593 17.593 0 017.944.357c7.226 2.035 10.31 5.739 10.979 10.495.574 4.081-.983 8.425-3.136 12.957-1.857 3.908-9.004 18.815-16.085 27.951-10.489 13.536-20.67 18.484-22.23-10.064a4.343 4.343 0 118.676-.442c.556 10.183 3.587 9.194 6.683 5.2 6.506-8.396 13.324-22.62 15.097-26.352 1.529-3.219 2.66-6.111 2.387-8.059-.179-1.276-1.485-2.406-4.719-3.317a8.952 8.952 0 00-4.031-.186 9.112 9.112 0 00-4.238 1.99c-1.11.943-1.949 2.159-2.341 3.548-.28.994-.343 2.096-.128 3.271z"/></svg>